<?xml version="1.0" encoding="UTF-8" standalone="no"?>
<!-- Created with Inkscape (http://www.inkscape.org/) -->

<svg
   xmlns:osb="http://www.openswatchbook.org/uri/2009/osb"
   xmlns:dc="http://purl.org/dc/elements/1.1/"
   xmlns:cc="http://creativecommons.org/ns#"
   xmlns:rdf="http://www.w3.org/1999/02/22-rdf-syntax-ns#"
   xmlns:svg="http://www.w3.org/2000/svg"
   xmlns="http://www.w3.org/2000/svg"
   xmlns:xlink="http://www.w3.org/1999/xlink"
   xmlns:sodipodi="http://sodipodi.sourceforge.net/DTD/sodipodi-0.dtd"
   xmlns:inkscape="http://www.inkscape.org/namespaces/inkscape"
   version="1.1"
   id="svg2"
   xml:space="preserve"
   width="666.66669"
   height="666.66669"
   viewBox="0 0 666.66669 666.66669"
   sodipodi:docname="16th.svg"
   inkscape:version="0.92.4 (5da689c313, 2019-01-14)"><metadata
     id="metadata8"><rdf:RDF><cc:Work
         rdf:about=""><dc:format>image/svg+xml</dc:format><dc:type
           rdf:resource="http://purl.org/dc/dcmitype/StillImage" /><dc:title /></cc:Work></rdf:RDF></metadata><defs
     id="defs6"><linearGradient
       inkscape:collect="always"
       id="linearGradient2695"><stop
         style="stop-color:#41ead4;stop-opacity:1;"
         offset="0"
         id="stop2691" /><stop
         style="stop-color:#41ead4;stop-opacity:0;"
         offset="1"
         id="stop2693" /></linearGradient><linearGradient
       inkscape:collect="always"
       id="linearGradient2667"
       osb:paint="gradient"><stop
         style="stop-color:#41ead4;stop-opacity:1;"
         offset="0"
         id="stop2663" /><stop
         style="stop-color:#41ead4;stop-opacity:0;"
         offset="1"
         id="stop2665" /></linearGradient><clipPath
       clipPathUnits="userSpaceOnUse"
       id="clipPath20"><path
         d="M 0,500 H 500 V 0 H 0 Z"
         id="path18"
         inkscape:connector-curvature="0" /></clipPath><clipPath
       clipPathUnits="userSpaceOnUse"
       id="clipPath28"><path
         d="M 0,500 H 500 V 0 H 0 Z"
         id="path26"
         inkscape:connector-curvature="0" /></clipPath><linearGradient
       x1="0"
       y1="0"
       x2="1"
       y2="0"
       gradientUnits="userSpaceOnUse"
       gradientTransform="matrix(66.177834,-254.85506,-254.85506,-66.177834,404.79788,499.36011)"
       spreadMethod="pad"
       id="linearGradient42"><stop
         style="stop-opacity:1;stop-color:#1ae5ff"
         offset="0"
         id="stop34" /><stop
         style="stop-opacity:1;stop-color:#1ae5ff"
         offset="0.02572617"
         id="stop36" /><stop
         style="stop-opacity:1;stop-color:#eaeeee"
         offset="0.704338"
         id="stop38" /><stop
         style="stop-opacity:1;stop-color:#eaeeee"
         offset="1"
         id="stop40" /></linearGradient><linearGradient
       x1="0"
       y1="0"
       x2="1"
       y2="0"
       gradientUnits="userSpaceOnUse"
       gradientTransform="matrix(64.101814,-246.86018,-246.86018,-64.101814,72.349785,83.95636)"
       spreadMethod="pad"
       id="linearGradient56"><stop
         style="stop-opacity:1;stop-color:#1ae5ff"
         offset="0"
         id="stop48" /><stop
         style="stop-opacity:1;stop-color:#1ae5ff"
         offset="0.02572617"
         id="stop50" /><stop
         style="stop-opacity:1;stop-color:#eaeeee"
         offset="0.704338"
         id="stop52" /><stop
         style="stop-opacity:1;stop-color:#eaeeee"
         offset="1"
         id="stop54" /></linearGradient><clipPath
       clipPathUnits="userSpaceOnUse"
       id="clipPath88"><path
         d="M 0,500 H 500 V 0 H 0 Z"
         id="path86"
         inkscape:connector-curvature="0" /></clipPath><clipPath
       clipPathUnits="userSpaceOnUse"
       id="clipPath100"><path
         d="M 68.7043,319.637 H 119.894 V 215.909 H 68.7043 Z"
         id="path98"
         inkscape:connector-curvature="0" /></clipPath><linearGradient
       x1="0"
       y1="0"
       x2="1"
       y2="0"
       gradientUnits="userSpaceOnUse"
       gradientTransform="matrix(14.989772,0,0,-14.989772,88.985168,256.3541)"
       spreadMethod="pad"
       id="linearGradient134"><stop
         style="stop-opacity:1;stop-color:#cc68ff"
         offset="0"
         id="stop130" /><stop
         style="stop-opacity:1;stop-color:#fb8e31"
         offset="1"
         id="stop132" /></linearGradient><linearGradient
       x1="0"
       y1="0"
       x2="1"
       y2="0"
       gradientUnits="userSpaceOnUse"
       gradientTransform="matrix(-42.109833,312.95239,-312.95239,-42.109833,329.64111,136.06841)"
       spreadMethod="pad"
       id="linearGradient158"><stop
         style="stop-opacity:1;stop-color:#1ae5ff"
         offset="0"
         id="stop150" /><stop
         style="stop-opacity:1;stop-color:#1ae5ff"
         offset="0.02572617"
         id="stop152" /><stop
         style="stop-opacity:1;stop-color:#eaeeee"
         offset="0.704338"
         id="stop154" /><stop
         style="stop-opacity:1;stop-color:#eaeeee"
         offset="1"
         id="stop156" /></linearGradient><linearGradient
       x1="0"
       y1="0"
       x2="1"
       y2="0"
       gradientUnits="userSpaceOnUse"
       gradientTransform="matrix(-17.173727,0,0,-17.173727,415.62991,219.30191)"
       spreadMethod="pad"
       id="linearGradient178"><stop
         style="stop-opacity:1;stop-color:#5155d4"
         offset="0"
         id="stop174" /><stop
         style="stop-opacity:1;stop-color:#45f7ff"
         offset="1"
         id="stop176" /></linearGradient><linearGradient
       x1="0"
       y1="0"
       x2="1"
       y2="0"
       gradientUnits="userSpaceOnUse"
       gradientTransform="matrix(212.68896,0,0,-212.68896,196.08089,272.98679)"
       spreadMethod="pad"
       id="linearGradient202"><stop
         style="stop-opacity:1;stop-color:#7f5eff"
         offset="0"
         id="stop194" /><stop
         style="stop-opacity:1;stop-color:#7f5eff"
         offset="0.30329118"
         id="stop196" /><stop
         style="stop-opacity:1;stop-color:#b391ff"
         offset="0.939976"
         id="stop198" /><stop
         style="stop-opacity:1;stop-color:#b391ff"
         offset="1"
         id="stop200" /></linearGradient><clipPath
       clipPathUnits="userSpaceOnUse"
       id="clipPath212"><path
         d="M 0,500 H 500 V 0 H 0 Z"
         id="path210"
         inkscape:connector-curvature="0" /></clipPath><linearGradient
       x1="0"
       y1="0"
       x2="1"
       y2="0"
       gradientUnits="userSpaceOnUse"
       gradientTransform="matrix(10.894448,-138.65662,-138.65662,-10.894448,298.17413,359.78165)"
       spreadMethod="pad"
       id="linearGradient242"><stop
         style="stop-opacity:1;stop-color:#5155d4"
         offset="0"
         id="stop238" /><stop
         style="stop-opacity:1;stop-color:#45f7ff"
         offset="1"
         id="stop240" /></linearGradient><clipPath
       clipPathUnits="userSpaceOnUse"
       id="clipPath252"><path
         d="M 0,500 H 500 V 0 H 0 Z"
         id="path250"
         inkscape:connector-curvature="0" /></clipPath><linearGradient
       x1="0"
       y1="0"
       x2="1"
       y2="0"
       gradientUnits="userSpaceOnUse"
       gradientTransform="matrix(0,-48.330986,-48.330986,0,292.47055,254.22394)"
       spreadMethod="pad"
       id="linearGradient282"><stop
         style="stop-opacity:1;stop-color:#7f5eff"
         offset="0"
         id="stop274" /><stop
         style="stop-opacity:1;stop-color:#7f5eff"
         offset="0.30329118"
         id="stop276" /><stop
         style="stop-opacity:1;stop-color:#b391ff"
         offset="0.939976"
         id="stop278" /><stop
         style="stop-opacity:1;stop-color:#b391ff"
         offset="1"
         id="stop280" /></linearGradient><linearGradient
       x1="0"
       y1="0"
       x2="1"
       y2="0"
       gradientUnits="userSpaceOnUse"
       gradientTransform="matrix(-29.078012,25.345015,-25.345015,-29.078012,234.03088,203.16283)"
       spreadMethod="pad"
       id="linearGradient306"><stop
         style="stop-opacity:1;stop-color:#1ae5ff"
         offset="0"
         id="stop298" /><stop
         style="stop-opacity:1;stop-color:#1ae5ff"
         offset="0.02572617"
         id="stop300" /><stop
         style="stop-opacity:1;stop-color:#eaeeee"
         offset="0.704338"
         id="stop302" /><stop
         style="stop-opacity:1;stop-color:#eaeeee"
         offset="1"
         id="stop304" /></linearGradient><clipPath
       clipPathUnits="userSpaceOnUse"
       id="clipPath316"><path
         d="M 0,500 H 500 V 0 H 0 Z"
         id="path314"
         inkscape:connector-curvature="0" /></clipPath><clipPath
       clipPathUnits="userSpaceOnUse"
       id="clipPath328"><path
         d="m 204.17,129.552 h 71.079 V 87.3172 H 204.17 Z"
         id="path326"
         inkscape:connector-curvature="0" /></clipPath><linearGradient
       x1="0"
       y1="0"
       x2="1"
       y2="0"
       gradientUnits="userSpaceOnUse"
       gradientTransform="matrix(71.078239,0,0,-71.078239,204.17041,108.43467)"
       spreadMethod="pad"
       id="linearGradient338"><stop
         style="stop-opacity:1;stop-color:#5155d4"
         offset="0"
         id="stop334" /><stop
         style="stop-opacity:1;stop-color:#45f7ff"
         offset="1"
         id="stop336" /></linearGradient><linearGradient
       x1="0"
       y1="0"
       x2="1"
       y2="0"
       gradientUnits="userSpaceOnUse"
       gradientTransform="matrix(6.5491872,136.74481,-136.74481,6.5491872,230.57285,136.43602)"
       spreadMethod="pad"
       id="linearGradient390"><stop
         style="stop-opacity:1;stop-color:#1ae5ff"
         offset="0"
         id="stop382" /><stop
         style="stop-opacity:1;stop-color:#1ae5ff"
         offset="0.02572617"
         id="stop384" /><stop
         style="stop-opacity:1;stop-color:#eaeeee"
         offset="0.704338"
         id="stop386" /><stop
         style="stop-opacity:1;stop-color:#eaeeee"
         offset="1"
         id="stop388" /></linearGradient><clipPath
       clipPathUnits="userSpaceOnUse"
       id="clipPath400"><path
         d="M 0,500 H 500 V 0 H 0 Z"
         id="path398"
         inkscape:connector-curvature="0" /></clipPath><linearGradient
       x1="0"
       y1="0"
       x2="1"
       y2="0"
       gradientUnits="userSpaceOnUse"
       gradientTransform="matrix(6.5491762,136.74458,-136.74458,6.5491762,251.19058,138.89571)"
       spreadMethod="pad"
       id="linearGradient434"><stop
         style="stop-opacity:1;stop-color:#1ae5ff"
         offset="0"
         id="stop426" /><stop
         style="stop-opacity:1;stop-color:#1ae5ff"
         offset="0.02572617"
         id="stop428" /><stop
         style="stop-opacity:1;stop-color:#eaeeee"
         offset="0.704338"
         id="stop430" /><stop
         style="stop-opacity:1;stop-color:#eaeeee"
         offset="1"
         id="stop432" /></linearGradient><linearGradient
       x1="0"
       y1="0"
       x2="1"
       y2="0"
       gradientUnits="userSpaceOnUse"
       gradientTransform="matrix(3.4055088,25.93421,-25.93421,3.4055088,266.28574,188.2606)"
       spreadMethod="pad"
       id="linearGradient458"><stop
         style="stop-opacity:1;stop-color:#1ae5ff"
         offset="0"
         id="stop450" /><stop
         style="stop-opacity:1;stop-color:#1ae5ff"
         offset="0.02572617"
         id="stop452" /><stop
         style="stop-opacity:1;stop-color:#eaeeee"
         offset="0.704338"
         id="stop454" /><stop
         style="stop-opacity:1;stop-color:#eaeeee"
         offset="1"
         id="stop456" /></linearGradient><clipPath
       clipPathUnits="userSpaceOnUse"
       id="clipPath468"><path
         d="M 0,500 H 500 V 0 H 0 Z"
         id="path466"
         inkscape:connector-curvature="0" /></clipPath><clipPath
       clipPathUnits="userSpaceOnUse"
       id="clipPath484"><path
         d="M 366.909,342.166 H 445 v -88.848 h -78.091 z"
         id="path482"
         inkscape:connector-curvature="0" /></clipPath><clipPath
       clipPathUnits="userSpaceOnUse"
       id="clipPath488"><path
         d="m 366.909,287.199 h 48.164 v -33.881 h -48.164 z"
         id="path486"
         inkscape:connector-curvature="0" /></clipPath><clipPath
       clipPathUnits="userSpaceOnUse"
       id="clipPath524"><path
         d="M 71.6475,362.144 H 111.825 V 316.433 H 71.6475 Z"
         id="path522"
         inkscape:connector-curvature="0" /></clipPath><clipPath
       clipPathUnits="userSpaceOnUse"
       id="clipPath528"><path
         d="m 87.045,333.865 h 24.78 v -17.432 h -24.78 z"
         id="path526"
         inkscape:connector-curvature="0" /></clipPath><linearGradient
       x1="0"
       y1="0"
       x2="1"
       y2="0"
       gradientUnits="userSpaceOnUse"
       gradientTransform="matrix(27.657194,52.721443,52.721443,-27.657194,231.1171,282.56839)"
       spreadMethod="pad"
       id="linearGradient574"><stop
         style="stop-opacity:1;stop-color:#cc68ff"
         offset="0"
         id="stop570" /><stop
         style="stop-opacity:1;stop-color:#fb8e31"
         offset="1"
         id="stop572" /></linearGradient><clipPath
       clipPathUnits="userSpaceOnUse"
       id="clipPath584"><path
         d="M 0,500 H 500 V 0 H 0 Z"
         id="path582"
         inkscape:connector-curvature="0" /></clipPath><clipPath
       clipPathUnits="userSpaceOnUse"
       id="clipPath596"><path
         d="m 150.191,389.818 h 71.065 v -50.136 h -71.065 z"
         id="path594"
         inkscape:connector-curvature="0" /></clipPath><clipPath
       clipPathUnits="userSpaceOnUse"
       id="clipPath612"><path
         d="m 390.735,201.224 h 49.394 v -34.847 h -49.394 z"
         id="path610"
         inkscape:connector-curvature="0" /></clipPath><linearGradient
       x1="0"
       y1="0"
       x2="1"
       y2="0"
       gradientUnits="userSpaceOnUse"
       gradientTransform="matrix(54.690212,49.181793,49.181793,-54.690212,84.56253,186.01419)"
       spreadMethod="pad"
       id="linearGradient640"><stop
         style="stop-opacity:1;stop-color:#92f3ff"
         offset="0"
         id="stop634" /><stop
         style="stop-opacity:1;stop-color:#92f3ff"
         offset="0.00830052"
         id="stop636" /><stop
         style="stop-opacity:1;stop-color:#ffffff"
         offset="1"
         id="stop638" /></linearGradient><clipPath
       clipPathUnits="userSpaceOnUse"
       id="clipPath650"><path
         d="M 0,500 H 500 V 0 H 0 Z"
         id="path648"
         inkscape:connector-curvature="0" /></clipPath><clipPath
       clipPathUnits="userSpaceOnUse"
       id="clipPath658"><path
         d="m 113.052,157.776 h 73.013 v -42.292 h -73.013 z"
         id="path656"
         inkscape:connector-curvature="0" /></clipPath><linearGradient
       x1="0"
       y1="0"
       x2="1"
       y2="0"
       gradientUnits="userSpaceOnUse"
       gradientTransform="matrix(73.013435,0,0,-73.013435,113.05189,136.62999)"
       spreadMethod="pad"
       id="linearGradient668"><stop
         style="stop-opacity:1;stop-color:#5155d4"
         offset="0"
         id="stop664" /><stop
         style="stop-opacity:1;stop-color:#45f7ff"
         offset="1"
         id="stop666" /></linearGradient><clipPath
       clipPathUnits="userSpaceOnUse"
       id="clipPath750"><path
         d="M 0,500 H 500 V 0 H 0 Z"
         id="path748"
         inkscape:connector-curvature="0" /></clipPath><radialGradient
       inkscape:collect="always"
       xlink:href="#linearGradient2695"
       id="radialGradient2697"
       cx="113.65737"
       cy="212.178"
       fx="113.65737"
       fy="212.178"
       r="44.031145"
       gradientTransform="matrix(1,0,0,0.57965788,0,89.187351)"
       gradientUnits="userSpaceOnUse" /></defs><sodipodi:namedview
     pagecolor="#ffffff"
     bordercolor="#666666"
     borderopacity="1"
     objecttolerance="10"
     gridtolerance="10"
     guidetolerance="10"
     inkscape:pageopacity="0"
     inkscape:pageshadow="2"
     inkscape:window-width="1920"
     inkscape:window-height="1001"
     id="namedview4"
     showgrid="false"
     inkscape:zoom="1.0012632"
     inkscape:cx="384.04332"
     inkscape:cy="324.9969"
     inkscape:window-x="-9"
     inkscape:window-y="-9"
     inkscape:window-maximized="1"
     inkscape:current-layer="g10" /><g
     id="g10"
     inkscape:groupmode="layer"
     inkscape:label="494641-PHESOC-447"
     transform="matrix(1.3333333,0,0,-1.3333333,0,666.66667)"><path
       d="M 803.73476,16.479184 H 1303.7348 V 516.47918 H 803.73476 Z"
       style="fill:#ffffff;fill-opacity:1;fill-rule:nonzero;stroke:none"
       id="path12"
       inkscape:connector-curvature="0" /><g
       id="g14"
       transform="translate(691.88502,-2.165424)"><g
         id="g16"
         clip-path="url(#clipPath20)"><g
           id="g22"><g
             id="g24" /><g
             id="g80"><g
               clip-path="url(#clipPath28)"
               id="g78"
               style="opacity:0.27999902"><g
                 id="g66"><g
                   id="g64"><g
                     id="g62"><g
                       id="g60"><path
                         d="m 366,472 c 49.477,-33.21 85.637,-62.276 134,-64.491 V 500 H 309.264 c 17.668,-5.879 36.98,-14.739 56.736,-28"
                         style="fill:url(#linearGradient42);stroke:none"
                         id="path58"
                         inkscape:connector-curvature="0" /></g></g></g></g><g
                 id="g76"><g
                   id="g74"><g
                     id="g72"><g
                       id="g70"><path
                         d="M 28.102,77.418 C 16.098,77.832 6.955,82.819 0,89.818 V 0 H 183.87 C 197.161,62.605 67.196,76.07 28.102,77.418"
                         style="fill:url(#linearGradient56);stroke:none"
                         id="path68"
                         inkscape:connector-curvature="0" /></g></g></g></g></g></g></g></g></g><g
       id="g82"
       style="fill:#ff5a29;fill-opacity:1"><g
         id="g84"
         clip-path="url(#clipPath88)"
         style="fill:#ff5a29;fill-opacity:1"><g
           id="g90"
           transform="translate(368.7051,141.9434)"
           style="fill:#ff5a29;fill-opacity:1"><path
             d="M 0,0 C 1.474,-0.851 2.666,-2.917 2.661,-4.609 2.656,-6.313 1.456,-6.997 -0.018,-6.146 L -24.289,7.866 c -1.474,0.852 -2.667,2.917 -2.662,4.62 0.005,1.694 1.206,2.378 2.679,1.527 z"
             style="fill:#ff5a29;fill-opacity:1;fill-rule:nonzero;stroke:none"
             id="path92"
             inkscape:connector-curvature="0" /></g><g
           id="g94"
           style="fill:#ff5a29;fill-opacity:1"><g
             id="g96"
             style="fill:#ff5a29;fill-opacity:1" /><g
             id="g108"
             style="fill:#ff5a29;fill-opacity:1"><g
               clip-path="url(#clipPath100)"
               id="g106"
               style="opacity:0.57000703;fill:#ff5a29;fill-opacity:1"><g
                 transform="translate(71.6294,294.958)"
                 id="g104"
                 style="fill:#ff5a29;fill-opacity:1"><path
                   d="m 0,0 c -1.614,-0.932 -2.93,-3.219 -2.925,-5.083 l 0.196,-69.028 c 0.012,-4.4 3.139,-6.199 6.948,-3.999 l 41.12,23.74 c 1.614,0.932 2.931,3.22 2.925,5.083 l -0.196,69.029 c -0.012,4.399 -3.139,6.198 -6.948,3.999 z"
                   style="fill:#ff5a29;fill-opacity:1;fill-rule:nonzero;stroke:none"
                   id="path102"
                   inkscape:connector-curvature="0" /></g></g></g></g><g
           id="g110"
           transform="translate(77.9385,269.9424)"
           style="fill:#ff5a29;fill-opacity:1"><path
             d="M 0,0 C -0.483,-0.279 -0.872,-0.954 -0.871,-1.505 L -0.86,-5.17 c 0.001,-0.556 0.393,-0.779 0.876,-0.5 l 33.528,19.357 c 0.483,0.279 0.872,0.954 0.871,1.508 l -0.011,3.666 c -0.001,0.552 -0.393,0.775 -0.876,0.496 z"
             style="fill:#ff5a29;fill-opacity:1;fill-rule:nonzero;stroke:none"
             id="path112"
             inkscape:connector-curvature="0" /></g><g
           id="g114"
           transform="translate(77.9614,261.9639)"
           style="fill:#ff5a29;fill-opacity:1"><path
             d="m 0,0 c -0.483,-0.279 -0.873,-0.953 -0.871,-1.508 l 0.01,-3.666 c 0.002,-0.555 0.394,-0.774 0.877,-0.495 l 33.527,19.357 c 0.483,0.278 0.873,0.949 0.872,1.504 l -0.011,3.666 c -0.002,0.555 -0.394,0.778 -0.877,0.499 z"
             style="fill:#ff5a29;fill-opacity:1;fill-rule:nonzero;stroke:none"
             id="path116"
             inkscape:connector-curvature="0" /></g></g></g><g
       id="g118"><g
         id="g120"><g
           id="g126"><g
             id="g128"><path
               d="m 101.893,262.284 -10.844,-6.261 c -1.144,-0.661 -2.068,-2.263 -2.063,-3.574 v 0 l 0.002,-0.841 c 0.003,-1.315 0.933,-1.844 2.077,-1.184 v 0 l 10.843,6.261 c 1.145,0.661 2.071,2.261 2.067,3.576 v 0 l -0.002,0.841 c -0.003,0.929 -0.471,1.466 -1.151,1.466 v 0 c -0.28,0 -0.596,-0.091 -0.929,-0.284"
               style="fill:url(#linearGradient134);stroke:none"
               id="path136"
               inkscape:connector-curvature="0" /></g></g></g></g><g
       id="g138"
       style="fill:#990000;fill-opacity:1"><g
         id="g140"
         style="fill:#990000;fill-opacity:1"><g
           id="g146"
           style="fill:#990000;fill-opacity:1"><g
             id="g148"
             style="fill:#990000;fill-opacity:1"><path
               d="m 208.485,411.04 c -0.203,-0.02 -0.402,-0.049 -0.596,-0.087 v 0 c -0.004,-10e-4 -0.01,-0.003 -0.014,-0.004 v 0 c -0.007,-0.001 -0.012,-0.004 -0.018,-0.005 v 0 c -0.238,-0.049 -0.468,-0.111 -0.69,-0.189 v 0 c -0.293,-0.105 -0.572,-0.234 -0.838,-0.387 v 0 l -6.86,-3.987 c 0.466,0.27 0.978,0.462 1.525,0.576 v 0 c 0.007,0.001 0.015,0.004 0.021,0.006 v 0 c 0.546,0.111 1.13,0.14 1.742,0.088 v 0 c 0.016,-10e-4 0.032,-0.004 0.048,-0.004 v 0 c 0.61,-0.057 1.249,-0.194 1.912,-0.418 v 0 c 0.01,-0.004 0.019,-0.006 0.029,-0.01 v 0 c 0.675,-0.231 1.372,-0.549 2.087,-0.961 v 0 l 187.544,-108.565 6.86,3.987 -187.544,108.565 c -0.11,0.063 -0.22,0.124 -0.33,0.183 v 0 c -0.142,0.078 -0.284,0.151 -0.424,0.22 v 0 c -0.14,0.07 -0.281,0.136 -0.419,0.198 v 0 c -0.14,0.062 -0.278,0.122 -0.415,0.176 v 0 c -0.141,0.056 -0.28,0.108 -0.418,0.158 v 0 c -0.027,0.009 -0.053,0.017 -0.08,0.025 v 0 c -0.011,0.004 -0.021,0.007 -0.031,0.011 v 0 c -0.101,0.034 -0.203,0.068 -0.304,0.099 v 0 c -0.143,0.043 -0.286,0.083 -0.427,0.118 v 0 c -0.143,0.036 -0.285,0.067 -0.425,0.094 v 0 c -0.152,0.03 -0.303,0.055 -0.453,0.075 v 0 c -0.102,0.014 -0.203,0.022 -0.303,0.031 v 0 c -0.015,10e-4 -0.031,0.003 -0.046,0.004 v 0 c -0.037,0.004 -0.074,0.009 -0.111,0.012 v 0 c -0.163,0.011 -0.326,0.016 -0.486,0.016 v 0 c -0.181,-10e-4 -0.361,-0.009 -0.536,-0.025"
               style="fill:#990000;stroke:none;fill-opacity:1"
               id="path160"
               inkscape:connector-curvature="0" /></g></g></g></g><g
       id="g162"
       style="fill:#990000;fill-opacity:1"><g
         id="g164"
         style="fill:#990000;fill-opacity:1"><g
           id="g170"
           style="fill:#990000;fill-opacity:1"><g
             id="g172"
             style="fill:#990000;fill-opacity:1"><path
               d="m 398.456,295.024 c 0.706,-0.408 1.394,-0.889 2.06,-1.429 v 0 c 0.017,-0.013 0.034,-0.027 0.052,-0.041 v 0 c 0.657,-0.537 1.292,-1.131 1.897,-1.774 v 0 c 0.01,-0.011 0.02,-0.021 0.029,-0.031 v 0 c 1.22,-1.301 2.318,-2.794 3.242,-4.388 v 0 c 0.022,-0.038 0.043,-0.077 0.065,-0.115 v 0 c 0.447,-0.782 0.856,-1.586 1.215,-2.404 v 0 c 0.004,-0.01 0.007,-0.019 0.013,-0.03 v 0 c 0.363,-0.837 0.678,-1.686 0.936,-2.538 v 0 c 0.003,-0.012 0.007,-0.022 0.009,-0.034 v 0 c 0.256,-0.854 0.457,-1.71 0.592,-2.555 v 0 c 0,-0.004 0.001,-0.007 0.001,-0.01 v 0 c 0.135,-0.852 0.206,-1.695 0.202,-2.515 v 0 l -0.371,-130.929 c -0.001,-0.804 -0.076,-1.545 -0.21,-2.228 v 0 c -0.005,-0.021 -0.009,-0.043 -0.013,-0.063 v 0 c -0.137,-0.671 -0.333,-1.279 -0.584,-1.823 v 0 c -0.006,-0.011 -0.01,-0.023 -0.015,-0.034 v 0 c -0.214,-0.457 -0.489,-0.839 -0.776,-1.202 v 0 c -0.096,-0.119 -0.185,-0.246 -0.288,-0.356 v 0 c -0.342,-0.364 -0.712,-0.688 -1.131,-0.932 v 0 l 6.86,3.987 c 0.419,0.244 0.79,0.568 1.131,0.933 v 0 c 0.102,0.108 0.192,0.234 0.287,0.355 v 0 c 0.123,0.154 0.263,0.288 0.373,0.461 v 0 c 0.142,0.222 0.271,0.458 0.391,0.708 v 0 c 0.004,0.011 0.009,0.022 0.013,0.033 v 0 c 0.005,0.01 0.009,0.022 0.014,0.032 v 0 c 0.078,0.169 0.152,0.341 0.221,0.523 v 0 c 0.065,0.176 0.126,0.358 0.18,0.545 v 0 c 0.052,0.172 0.098,0.347 0.138,0.529 v 0 c 0.017,0.074 0.031,0.151 0.046,0.227 v 0 c 0.004,0.021 0.008,0.043 0.013,0.064 v 0 c 0.013,0.072 0.03,0.142 0.043,0.215 v 0 c 0.028,0.162 0.053,0.327 0.074,0.495 v 0 c 0.02,0.164 0.037,0.329 0.052,0.499 v 0 c 0.012,0.16 0.022,0.323 0.03,0.488 v 0 c 0.007,0.166 0.011,0.332 0.012,0.501 v 0 0.031 l 0.371,130.928 c 10e-4,0.155 -0.002,0.311 -0.007,0.468 v 0 c -0.005,0.166 -0.013,0.332 -0.024,0.501 v 0 c -0.01,0.166 -0.023,0.335 -0.039,0.504 v 0 c -0.017,0.167 -0.035,0.337 -0.056,0.506 v 0 c -0.023,0.173 -0.047,0.347 -0.074,0.521 v 0 l -0.004,0.014 c 0,0.004 0,0.007 -10e-4,0.011 v 0 c -0.025,0.165 -0.055,0.332 -0.086,0.498 v 0 c -0.033,0.18 -0.071,0.36 -0.11,0.54 v 0 c -0.039,0.181 -0.081,0.36 -0.126,0.542 v 0 c -0.046,0.183 -0.093,0.367 -0.144,0.549 v 0 c -0.04,0.142 -0.082,0.284 -0.124,0.426 v 0 c -0.004,0.011 -0.007,0.022 -0.011,0.033 v 0 c -0.009,0.029 -0.017,0.059 -0.025,0.088 v 0 c -0.055,0.179 -0.111,0.357 -0.171,0.535 v 0 c -0.06,0.176 -0.121,0.352 -0.184,0.527 v 0 c -0.061,0.169 -0.125,0.338 -0.19,0.506 v 0 c -0.066,0.168 -0.133,0.335 -0.203,0.502 v 0 c -0.053,0.129 -0.109,0.256 -0.164,0.384 v 0 c -0.003,0.009 -0.006,0.016 -0.01,0.024 v 0 c -0.013,0.03 -0.025,0.059 -0.037,0.087 v 0 c -0.074,0.168 -0.151,0.334 -0.229,0.501 v 0 c -0.084,0.183 -0.173,0.363 -0.263,0.543 v 0 c -0.103,0.208 -0.21,0.414 -0.32,0.62 v 0 c -0.118,0.22 -0.243,0.438 -0.368,0.656 v 0 c -0.022,0.038 -0.042,0.076 -0.064,0.115 v 0 c -0.027,0.045 -0.051,0.092 -0.077,0.137 v 0 c -0.244,0.415 -0.501,0.823 -0.767,1.222 v 0 c -0.212,0.317 -0.43,0.628 -0.655,0.933 v 0 c -0.151,0.205 -0.304,0.405 -0.46,0.603 v 0 c -0.131,0.167 -0.264,0.331 -0.399,0.493 v 0 c -0.131,0.159 -0.265,0.315 -0.399,0.468 v 0 c -0.133,0.151 -0.267,0.3 -0.403,0.446 v 0 c -0.027,0.029 -0.054,0.057 -0.082,0.086 v 0 c -0.01,0.01 -0.019,0.02 -0.029,0.031 v 0 c -0.103,0.11 -0.206,0.22 -0.311,0.327 v 0 c -0.144,0.146 -0.29,0.289 -0.436,0.43 v 0 c -0.15,0.144 -0.302,0.285 -0.455,0.423 v 0 c -0.152,0.138 -0.306,0.271 -0.461,0.401 v 0 c -0.077,0.066 -0.155,0.128 -0.233,0.191 v 0 c -0.018,0.014 -0.036,0.03 -0.053,0.044 v 0 c -0.058,0.047 -0.116,0.096 -0.174,0.142 v 0 c -0.15,0.118 -0.303,0.234 -0.455,0.347 v 0 c -0.149,0.109 -0.299,0.216 -0.45,0.319 v 0 c -0.146,0.1 -0.293,0.198 -0.44,0.292 v 0 c -0.146,0.092 -0.292,0.182 -0.439,0.268 v 0 c -0.033,0.02 -0.067,0.04 -0.101,0.06 v 0 z"
               style="fill:#990000;stroke:none;fill-opacity:1"
               id="path180"
               inkscape:connector-curvature="0" /></g></g></g></g><g
       id="g182"><g
         id="g184"><g
           id="g190"
           style="fill:#ff5a29;fill-opacity:1"><g
             id="g192"
             style="fill:#ff5a29;fill-opacity:1"><path
               d="m 196.452,399.742 -0.371,-130.928 c -0.019,-6.57 4.596,-14.563 10.313,-17.864 v 0 L 398.018,140.316 c 5.718,-3.302 10.361,-0.654 10.38,5.915 v 0 l 0.371,130.929 c 0.019,6.57 -4.595,14.563 -10.313,17.864 v 0 L 206.833,405.658 c -1.67,0.964 -3.248,1.42 -4.646,1.42 v 0 c -3.39,0 -5.722,-2.685 -5.735,-7.336"
               style="fill:#ff5a29;stroke:none;fill-opacity:1"
               id="path204"
               inkscape:connector-curvature="0" /></g></g></g></g><g
       id="g206"><g
         id="g208"
         clip-path="url(#clipPath212)"><g
           id="g214"
           transform="translate(386.6279,295.3145)"><path
             d="M 0,0 C 5.256,-3.035 9.498,-10.382 9.48,-16.422 L 9.14,-136.784 c -0.018,-6.04 -4.287,-8.474 -9.543,-5.439 l -167.135,96.434 c -5.256,3.035 -9.499,10.383 -9.481,16.422 l 0.341,120.363 c 0.017,6.039 4.287,8.473 9.543,5.438 z"
             style="fill:#f9fbfc;fill-opacity:1;fill-rule:nonzero;stroke:none"
             id="path216"
             inkscape:connector-curvature="0" /></g><g
           id="g218"
           transform="translate(401.4824,190.7061)"><path
             d="m 0,0 v 0 c -0.772,0 -1.398,0.626 -1.398,1.398 v 41.96 c 0,0.773 0.626,1.399 1.398,1.399 0.772,0 1.398,-0.626 1.398,-1.399 V 1.398 C 1.398,0.626 0.772,0 0,0"
             style="fill:#f9fbfc;fill-opacity:1;fill-rule:nonzero;stroke:none"
             id="path220"
             inkscape:connector-curvature="0" /></g><g
           id="g222"
           transform="translate(202.6064,324.9995)"><path
             d="M 0,0 C 1.635,-0.944 2.957,-3.233 2.952,-5.112 2.946,-6.991 1.616,-7.75 -0.019,-6.805 -1.654,-5.861 -2.976,-3.572 -2.971,-1.693 -2.965,0.186 -1.635,0.944 0,0"
             style="fill:#ffffff;fill-opacity:1;fill-rule:nonzero;stroke:none"
             id="path224"
             inkscape:connector-curvature="0" /></g></g></g><g
       id="g226"
       style="fill:#ff5a29;fill-opacity:1"><g
         id="g228"
         style="fill:#ff5a29;fill-opacity:1"><g
           id="g234"
           style="fill:#ff5a29;fill-opacity:1"><g
             id="g236"
             style="fill:#ff5a29;fill-opacity:1"><path
               d="m 287.239,325.563 c -0.118,-0.211 -0.23,-0.429 -0.336,-0.653 v 0 c -0.529,-1.124 -0.912,-2.422 -1.127,-3.88 v 0 c -0.128,-0.875 -0.196,-1.808 -0.199,-2.796 v 0 c -10e-4,-0.295 0.006,-0.592 0.016,-0.89 v 0 c 0.003,-0.062 0.005,-0.124 0.008,-0.185 v 0 c 0.012,-0.291 0.03,-0.582 0.054,-0.875 v 0 c 0.003,-0.051 0.008,-0.101 0.013,-0.152 v 0 c 0.023,-0.28 0.051,-0.561 0.095,-0.945 v 0 c 0.037,-0.299 0.081,-0.599 0.127,-0.901 v 0 c 0.01,-0.065 0.021,-0.129 0.031,-0.194 v 0 c 0.049,-0.301 0.102,-0.603 0.182,-1.005 v 0 c 0.056,-0.287 0.118,-0.573 0.182,-0.858 v 0 c 0.013,-0.054 0.025,-0.108 0.037,-0.161 v 0 c 0.071,-0.302 0.146,-0.603 0.224,-0.905 v 0 l 0.051,-0.184 c 0.167,-0.622 0.355,-1.244 0.561,-1.865 v 0 c 0.02,-0.06 0.04,-0.122 0.061,-0.182 v 0 c 0.102,-0.303 0.209,-0.606 0.32,-0.909 v 0 c 0.017,-0.048 0.036,-0.095 0.054,-0.143 v 0 c 0.106,-0.287 0.216,-0.573 0.373,-0.965 v 0 c 0.122,-0.302 0.249,-0.603 0.38,-0.903 v 0 c 0.026,-0.062 0.054,-0.124 0.081,-0.186 v 0 c 0.132,-0.301 0.267,-0.602 0.447,-0.982 v 0 c 0.134,-0.282 0.271,-0.563 0.411,-0.843 v 0 c 0.027,-0.053 0.053,-0.106 0.08,-0.16 v 0 c 0.148,-0.291 0.3,-0.581 0.456,-0.869 v 0 c 0.028,-0.056 0.06,-0.111 0.09,-0.167 v 0 c 0.156,-0.288 0.316,-0.575 0.497,-0.888 v 0 c 0.166,-0.289 0.338,-0.575 0.512,-0.86 v 0 c 0.036,-0.059 0.072,-0.119 0.109,-0.177 v 0 c 0.17,-0.277 0.344,-0.552 0.522,-0.825 v 0 c 0.03,-0.045 0.061,-0.091 0.09,-0.137 v 0 c 0.168,-0.255 0.338,-0.508 0.587,-0.87 v 0 c 0.13,-0.185 0.262,-0.368 0.394,-0.55 v 0 c -0.298,0.454 -0.452,0.71 -0.459,0.724 v 0 c 0.017,6.415 4.562,9.005 10.153,5.777 v 0 c 5.536,-3.197 10.021,-10.911 10.079,-17.296 v 0 c 0.093,0.03 0.188,0.057 0.336,0.11 v 0 c 0.18,0.067 0.356,0.142 0.528,0.22 v 0 c 0.035,0.016 0.072,0.032 0.106,0.049 v 0 c 0.168,0.079 0.334,0.164 0.496,0.255 v 0 c 0.03,0.018 0.062,0.037 0.093,0.054 v 0 c 0.166,0.098 0.33,0.198 0.521,0.331 v 0 c 0.156,0.107 0.306,0.219 0.454,0.337 v 0 c 0.023,0.018 0.047,0.036 0.069,0.055 v 0 c 0.148,0.121 0.291,0.248 0.43,0.38 v 0 c 0.028,0.024 0.054,0.049 0.08,0.076 v 0 c 0.14,0.134 0.276,0.274 0.407,0.42 v 0 c 0.019,0.022 0.039,0.044 0.058,0.066 v 0 c 0.136,0.154 0.268,0.312 0.4,0.483 v 0 c 0.127,0.166 0.248,0.34 0.367,0.518 v 0 c 0.018,0.027 0.036,0.053 0.054,0.081 v 0 c 0.111,0.171 0.218,0.349 0.321,0.531 v 0 c 0.02,0.035 0.04,0.071 0.058,0.107 v 0 c 0.102,0.186 0.201,0.376 0.33,0.65 v 0 c 0.09,0.194 0.176,0.393 0.282,0.657 v 0 c 0.083,0.212 0.161,0.43 0.234,0.653 v 0 c 0.013,0.039 0.027,0.078 0.039,0.119 v 0 c 0.071,0.22 0.136,0.445 0.197,0.675 v 0 c 0.01,0.04 0.021,0.081 0.031,0.122 v 0 c 0.061,0.237 0.119,0.479 0.181,0.793 v 0 c 0.047,0.243 0.091,0.489 0.143,0.838 v 0 c 0.038,0.255 0.068,0.517 0.096,0.783 v 0 c 0.005,0.051 0.01,0.102 0.015,0.154 v 0 c 0.024,0.265 0.044,0.535 0.058,0.81 v 0 c 0.002,0.045 0.003,0.089 0.005,0.134 v 0 c 0.013,0.29 0.022,0.584 0.023,0.884 v 0 c 0.003,0.989 -0.06,1.997 -0.184,3.018 v 0 c -0.205,1.7 -0.58,3.435 -1.101,5.166 v 0 c -0.21,0.693 -0.442,1.384 -0.696,2.073 v 0 c -0.173,0.468 -0.359,0.934 -0.553,1.397 v 0 c -2.928,7.055 -8.113,13.611 -14.031,17.028 v 0 c -2.678,1.547 -5.21,2.279 -7.454,2.279 v 0 c -3.281,0 -5.945,-1.566 -7.549,-4.446 m 15.312,-18.812 c -3.405,1.966 -6.162,6.743 -6.151,10.655 v 0 c 0.011,3.92 2.786,5.493 6.191,3.528 v 0 c 3.411,-1.97 6.162,-6.733 6.15,-10.654 v 0 c -0.007,-2.771 -1.398,-4.375 -3.422,-4.375 v 0 c -0.833,0 -1.773,0.272 -2.768,0.846"
               style="fill:#ff5a29;stroke:none;fill-opacity:1"
               id="path244"
               inkscape:connector-curvature="0" /></g></g></g></g><g
       id="g246"
       style="fill:#ff5a29;fill-opacity:1"><g
         id="g248"
         clip-path="url(#clipPath252)"
         style="fill:#ff5a29;fill-opacity:1"><g
           id="g254"
           transform="translate(343.5518,254.7764)"
           style="fill:#ff5a29;fill-opacity:1"><path
             d="m 0,0 c 1.282,-0.74 2.315,-2.529 2.312,-3.993 l -0.029,-9.726 c -0.004,-1.472 -1.044,-2.065 -2.325,-1.325 l -88.963,51.362 c -1.282,0.741 -2.315,2.53 -2.31,4.003 l 0.027,9.726 c 0.004,1.463 1.044,2.056 2.325,1.316 z"
             style="fill:#ff5a29;fill-opacity:1;fill-rule:nonzero;stroke:none"
             id="path256"
             inkscape:connector-curvature="0" /></g><g
           id="g258"
           transform="translate(343.4922,233.6074)"
           style="fill:#ff5a29;fill-opacity:1"><path
             d="m 0,0 c 1.281,-0.74 2.314,-2.529 2.311,-4.002 l -0.028,-9.727 c -0.004,-1.472 -1.044,-2.055 -2.326,-1.315 l -88.963,51.362 c -1.281,0.74 -2.314,2.52 -2.31,3.993 l 0.027,9.727 c 0.005,1.472 1.045,2.065 2.326,1.325 z"
             style="fill:#ff5a29;fill-opacity:1;fill-rule:nonzero;stroke:none"
             id="path260"
             inkscape:connector-curvature="0" /></g></g></g><g
       id="g262"
       style="fill:#ff5a29;fill-opacity:1"><g
         id="g264"
         style="fill:#ff5a29;fill-opacity:1"><g
           id="g270"
           style="fill:#ff5a29;fill-opacity:1"><g
             id="g272"
             style="fill:#ff5a29;fill-opacity:1"><path
               d="m 276.826,239.966 -0.005,-1.756 c -0.007,-2.746 1.926,-6.087 4.316,-7.467 v 0 l 22.641,-13.072 c 2.389,-1.38 4.33,-0.274 4.337,2.472 v 0 l 0.005,1.756 c 0.008,2.737 -1.92,6.084 -4.31,7.463 v 0 l -22.64,13.072 c -0.698,0.403 -1.357,0.593 -1.942,0.593 v 0 c -1.419,0 -2.396,-1.122 -2.402,-3.061"
               style="fill:#ff5a29;stroke:none;fill-opacity:1"
               id="path284"
               inkscape:connector-curvature="0" /></g></g></g></g><g
       id="g286"><g
         id="g288"><g
           id="g294"><g
             id="g296"><path
               d="m 212.865,205.951 c 0.983,-3.734 6.878,-5.697 11.396,-2.751 v 0 c 4.519,2.948 -0.165,23.973 -2.538,27.411 v 0 c 0,0 -7.678,-4.424 -8.858,-24.66"
               style="fill:url(#linearGradient306);stroke:none"
               id="path308"
               inkscape:connector-curvature="0" /></g></g></g></g><g
       id="g310"><g
         id="g312"
         clip-path="url(#clipPath316)"><g
           id="g318"
           transform="translate(260.7578,208.7598)"><path
             d="m 0,0 c 0,0 17.582,7.83 19.946,9.16 2.365,1.33 4.138,6.206 5.024,7.24 0.886,1.035 4.876,3.399 4.728,2.365 -0.147,-1.036 -2.216,-2.955 -2.216,-2.955 0,0 1.477,-2.513 1.773,-4.138 C 29.551,10.047 27.334,6.796 26.152,5.91 24.97,5.023 22.163,4.728 22.163,4.728 c 0,0 -14.332,-9.604 -16.696,-9.752 C 3.103,-5.172 -0.296,-3.842 0,0"
             style="fill:#ff9d6f;fill-opacity:1;fill-rule:nonzero;stroke:none"
             id="path320"
             inkscape:connector-curvature="0" /></g><g
           id="g322"><g
             id="g324" /><g
             id="g352"><g
               clip-path="url(#clipPath328)"
               id="g350"
               style="opacity:0.21000701"><g
                 id="g348"><g
                   id="g346"><g
                     id="g344"><g
                       id="g342"><path
                         d="m 275.249,108.435 c 0,-11.664 -15.912,-21.118 -35.54,-21.118 -19.627,0 -35.539,9.454 -35.539,21.118 0,11.663 15.912,21.117 35.539,21.117 19.628,0 35.54,-9.454 35.54,-21.117"
                         style="fill:url(#linearGradient338);stroke:none"
                         id="path340"
                         inkscape:connector-curvature="0" /></g></g></g></g></g></g></g><g
           id="g354"
           transform="translate(224.9731,112.9824)"><path
             d="m 0,0 c 0,0 -0.457,-3.349 0.152,-4.719 0.609,-1.218 3.044,-2.131 4.719,-0.913 1.674,1.218 4.567,4.262 4.567,4.262 0,0 4.87,2.588 5.327,3.958 0.457,1.37 -1.218,2.588 -2.588,2.283 C 10.807,4.566 6.85,2.132 5.023,2.132 3.196,2.132 0.609,1.675 0,0"
             style="fill:#113c7a;fill-opacity:1;fill-rule:nonzero;stroke:none"
             id="path356"
             inkscape:connector-curvature="0" /></g><g
           id="g358"
           transform="translate(219.9556,184.2656)"><path
             d="m 0,0 c 0,0 4.259,-70.308 4.79,-72.345 0.531,-2.036 6.057,-3.206 7.082,0.03 0.65,2.053 2.254,67.117 2.254,67.117 z"
             style="fill:#113c7a;fill-opacity:1;fill-rule:nonzero;stroke:none"
             id="path360"
             inkscape:connector-curvature="0" /></g><g
           id="g362"
           transform="translate(239.061,108.7988)"><path
             d="m 0,0 c -0.239,-0.205 -0.371,-0.504 -0.374,-0.819 -0.009,-0.967 0.036,-3.122 0.582,-3.961 0.715,-1.097 2.951,-2.259 5.291,-0.989 1.971,1.072 8.04,5.607 9.272,6.612 0.747,0.609 1.079,1.362 1.226,1.939 0.132,0.521 -0.133,1.058 -0.623,1.277 -0.86,0.382 -2.332,0.86 -3.647,0.419 C 9.717,3.802 7.187,1.624 4.449,1.742 2.392,1.83 0.709,0.611 0,0"
             style="fill:#113c7a;fill-opacity:1;fill-rule:nonzero;stroke:none"
             id="path364"
             inkscape:connector-curvature="0" /></g><g
           id="g366"
           transform="translate(248.4624,183.5068)"><path
             d="m 0,0 c -0.308,2.922 -3.804,3.871 -7.023,2.876 -6.145,0.331 -15.66,0.068 -15.993,-4.7 -0.494,-7.061 2.816,-12.099 6.01,-15.527 2.36,-2.532 3.929,-7.377 4.589,-9.738 0.56,-18.646 1.795,-44.94 2.567,-47.458 1.242,-4.054 7.358,-3.871 7.635,0.077 C -0.977,-61.129 0,0 0,0"
             style="fill:#113c7a;fill-opacity:1;fill-rule:nonzero;stroke:none"
             id="path368"
             inkscape:connector-curvature="0" /></g></g></g><g
       id="g370"><g
         id="g372"><g
           id="g378"><g
             id="g380"><path
               d="m 221.723,230.611 c 0,0 -3.448,-4.058 -3.448,-9.537 v 0 c 0,-5.48 0.914,-33.336 0.914,-33.336 v 0 c -0.214,-6.971 6.261,-9.921 12.274,-10.883 v 0 c 6.013,-0.962 16.294,0.842 17.016,4.45 v 0 c 0,0 0.696,6.51 1.61,21.123 v 0 c 0.913,14.612 -1.827,21.614 -1.827,21.614 v 0 c -3.968,6.374 -12.59,8.252 -12.59,8.252 v 0 c -2.323,0.475 -4.298,0.66 -5.967,0.66 v 0 c -5.931,0 -7.982,-2.343 -7.982,-2.343"
               style="fill:url(#linearGradient390);stroke:none"
               id="path392"
               inkscape:connector-curvature="0" /></g></g></g></g><g
       id="g394"><g
         id="g396"
         clip-path="url(#clipPath400)"><g
           id="g402"
           transform="translate(227.4087,240.0244)"><path
             d="m 0,0 c 0,0 0.913,-5.327 0,-7.763 -0.152,-1.217 5.175,-5.327 9.894,-4.261 2.74,0.608 2.588,1.978 2.588,1.978 0,0 -2.284,3.806 -1.979,7.459 C 10.807,1.066 3.196,0.762 0,0"
             style="fill:#ff7c40;fill-opacity:1;fill-rule:nonzero;stroke:none"
             id="path404"
             inkscape:connector-curvature="0" /></g><g
           id="g406"
           transform="translate(245.2178,250.7559)"><path
             d="m 0,0 c 0,-6.936 -5.622,-12.558 -12.558,-12.558 -6.935,0 -12.558,5.622 -12.558,12.558 0,6.936 5.623,12.558 12.558,12.558 C -5.622,12.558 0,6.936 0,0"
             style="fill:#ff9d6f;fill-opacity:1;fill-rule:nonzero;stroke:none"
             id="path408"
             inkscape:connector-curvature="0" /></g><g
           id="g410"
           transform="translate(245.2178,249.9189)"><path
             d="m 0,0 c 0,0 0.152,-12.579 -2.587,-15.118 -2.74,-2.539 -6.947,2.377 -13.672,3.953 -6.725,1.727 5.452,14.807 5.452,14.807 z"
             style="fill:#ff9d6f;fill-opacity:1;fill-rule:nonzero;stroke:none"
             id="path412"
             inkscape:connector-curvature="0" /></g></g></g><g
       id="g414"><g
         id="g416"><g
           id="g422"><g
             id="g424"><path
               d="m 244.203,226.974 c -6.68,-0.197 -3.929,-10.217 -2.161,-14.54 v 0 c 1.769,-4.322 14.539,-11.984 16.504,-11.984 v 0 c 1.964,0 9.627,1.375 10.806,4.126 v 0 c 1.178,2.75 -1.966,8.252 -3.144,8.252 v 0 c -1.179,0 -4.126,-1.964 -6.287,-0.982 v 0 c -2.161,0.982 -6.68,6.876 -9.824,11.395 v 0 c -2.332,3.353 -4.448,3.785 -5.385,3.785 v 0 c -0.325,0 -0.509,-0.052 -0.509,-0.052"
               style="fill:url(#linearGradient434);stroke:none"
               id="path436"
               inkscape:connector-curvature="0" /></g></g></g></g><g
       id="g438"><g
         id="g440"><g
           id="g446"><g
             id="g448"><path
               d="m 267.977,214.596 c -2.752,-0.196 -3.537,-2.358 -3.537,-2.358 v 0 c 4.715,-6.68 2.75,-8.645 3.733,-9.43 v 0 c 0.982,-0.787 5.305,0.785 5.501,3.733 v 0 c 0.193,2.893 -2.834,8.06 -5.548,8.06 v 0 c -0.05,0 -0.1,-0.001 -0.149,-0.005"
               style="fill:url(#linearGradient458);stroke:none"
               id="path460"
               inkscape:connector-curvature="0" /></g></g></g></g><g
       id="g462"
       style="fill:#ff5a29;fill-opacity:1"><g
         id="g464"
         clip-path="url(#clipPath468)"
         style="fill:#ff5a29;fill-opacity:1"><g
           id="g470"
           transform="translate(240.1758,261.3564)"
           style="fill:#ff5a29;fill-opacity:1"><path
             d="m 0,0 c 0,0 4.519,-0.982 5.894,-7.859 -0.589,-2.947 -4.715,-0.589 -6.287,-4.519 -1.572,-3.93 -2.554,-5.108 -2.554,-5.108 l -0.983,0.393 c 0,0 0,3.144 -1.375,3.144 -1.375,0 -1.768,-3.734 -0.982,-5.305 0.786,-1.572 2.554,-2.358 2.554,-2.358 0,0 -1.965,-3.34 -2.947,-3.733 -0.983,-0.393 -4.519,0.393 -5.894,0.983 -1.376,0.589 -3.93,3.34 -5.895,6.483 -1.964,3.144 -3.733,8.645 -2.554,12.378 1.179,3.733 3.93,4.715 3.93,4.715 0,0 1.572,2.161 4.322,3.143 C -10.02,3.34 -4.912,3.733 0,0"
             style="fill:#ff5a29;fill-opacity:1;fill-rule:nonzero;stroke:none"
             id="path472"
             inkscape:connector-curvature="0" /></g><g
           id="g474"
           transform="translate(242.3369,229.6592)"
           style="fill:#ff5a29;fill-opacity:1"><path
             d="m 0,0 -3.274,1.833 c 0,0 -8.384,0.786 -11.396,2.751 l -1.572,-2.227 c 0,0 2.096,-4.06 7.466,-4.584 5.37,-0.524 7.859,1.572 7.859,1.572 z"
             style="fill:#ff5a29;fill-opacity:1;fill-rule:nonzero;stroke:none"
             id="path476"
             inkscape:connector-curvature="0" /></g><g
           id="g478"
           style="fill:#ff5a29;fill-opacity:1"><g
             id="g480"
             style="fill:#ff5a29;fill-opacity:1" /><g
             id="g516"
             style="fill:#ff5a29;fill-opacity:1"><g
               clip-path="url(#clipPath484)"
               id="g514"
               style="opacity:0.66999799;fill:#ff5a29;fill-opacity:1"><g
                 transform="translate(390.0762,329.2612)"
                 id="g492"
                 style="fill:#ff5a29;fill-opacity:1"><path
                   d="m 0,0 -0.01,-3.681 c -0.006,-2.17 -2.357,-3.52 -4.234,-2.431 L -21.606,3.961 c -0.873,0.506 -1.408,1.439 -1.405,2.447 L -23,10.089 c 0.006,2.17 2.357,3.519 4.233,2.431 L -1.404,2.447 C -0.532,1.94 0.003,1.008 0,0"
                   style="fill:#ff5a29;fill-opacity:1;fill-rule:nonzero;stroke:none"
                   id="path490"
                   inkscape:connector-curvature="0" /></g><g
                 transform="translate(445,279.2559)"
                 id="g496"
                 style="fill:#ff5a29;fill-opacity:1"><path
                   d="m 0,0 -0.011,-3.689 c -0.006,-2.166 -2.352,-3.517 -4.228,-2.434 l -72.338,41.765 c -0.875,0.505 -1.412,1.439 -1.409,2.449 l 0.009,3.689 c 0.006,2.167 2.353,3.517 4.23,2.434 L -1.409,2.45 C -0.535,1.945 0.003,1.01 0,0"
                   style="fill:#ff5a29;fill-opacity:1;fill-rule:nonzero;stroke:none"
                   id="path494"
                   inkscape:connector-curvature="0" /></g><g
                 id="g508"
                 style="fill:#ff5a29;fill-opacity:1"><g
                   id="g498"
                   style="fill:#ff5a29;fill-opacity:1" /><g
                   id="g506"
                   style="fill:#ff5a29;fill-opacity:1"><g
                     clip-path="url(#clipPath488)"
                     id="g504"
                     style="opacity:0.52999902;fill:#ff5a29;fill-opacity:1"><g
                       transform="translate(415.0723,259.8228)"
                       id="g502"
                       style="fill:#ff5a29;fill-opacity:1"><path
                         d="m 0,0 -0.01,-3.689 c -0.007,-2.167 -2.352,-3.517 -4.229,-2.434 l -42.514,24.545 c -0.875,0.506 -1.413,1.44 -1.41,2.45 l 0.011,3.689 c 0.006,2.167 2.352,3.517 4.228,2.434 L -1.409,2.449 C -0.534,1.944 0.003,1.01 0,0"
                         style="fill:#ff5a29;fill-opacity:1;fill-rule:nonzero;stroke:none"
                         id="path500"
                         inkscape:connector-curvature="0" /></g></g></g></g><g
                 transform="translate(433.7314,267.4062)"
                 id="g512"
                 style="fill:#ff5a29;fill-opacity:1"><path
                   d="M 0,0 -0.011,-3.689 C -0.017,-5.856 -2.363,-7.206 -4.24,-6.123 l -61.12,35.288 c -0.875,0.505 -1.412,1.439 -1.411,2.45 l 0.011,3.689 c 0.006,2.167 2.353,3.517 4.23,2.433 L -1.41,2.449 C -0.535,1.944 0.003,1.01 0,0"
                   style="fill:#ff5a29;fill-opacity:1;fill-rule:nonzero;stroke:none"
                   id="path510"
                   inkscape:connector-curvature="0" /></g></g></g></g><g
           id="g518"
           style="fill:#ff5a29;fill-opacity:1"><g
             id="g520"
             style="fill:#ff5a29;fill-opacity:1" /><g
             id="g556"
             style="fill:#ff5a29;fill-opacity:1"><g
               clip-path="url(#clipPath524)"
               id="g554"
               style="opacity:0.66999799;fill:#ff5a29;fill-opacity:1"><g
                 transform="translate(99.9053,355.5049)"
                 id="g532"
                 style="fill:#ff5a29;fill-opacity:1"><path
                   d="m 0,0 0.005,-1.894 c 0.003,-1.116 1.213,-1.811 2.179,-1.25 l 8.933,5.182 c 0.448,0.26 0.724,0.74 0.722,1.259 l -0.006,1.894 c -0.002,1.116 -1.212,1.81 -2.178,1.25 L 0.723,1.259 C 0.274,0.999 -0.001,0.519 0,0"
                   style="fill:#ff5a29;fill-opacity:1;fill-rule:nonzero;stroke:none"
                   id="path530"
                   inkscape:connector-curvature="0" /></g><g
                 transform="translate(71.6475,329.7778)"
                 id="g536"
                 style="fill:#ff5a29;fill-opacity:1"><path
                   d="m 0,0 0.005,-1.898 c 0.004,-1.115 1.211,-1.81 2.176,-1.252 l 37.217,21.487 c 0.451,0.26 0.727,0.741 0.726,1.261 l -0.006,1.898 c -0.003,1.114 -1.21,1.809 -2.176,1.252 L 0.725,1.26 C 0.275,1 -0.001,0.52 0,0"
                   style="fill:#ff5a29;fill-opacity:1;fill-rule:nonzero;stroke:none"
                   id="path534"
                   inkscape:connector-curvature="0" /></g><g
                 id="g548"
                 style="fill:#ff5a29;fill-opacity:1"><g
                   id="g538"
                   style="fill:#ff5a29;fill-opacity:1" /><g
                   id="g546"
                   style="fill:#ff5a29;fill-opacity:1"><g
                     clip-path="url(#clipPath528)"
                     id="g544"
                     style="opacity:0.52999902;fill:#ff5a29;fill-opacity:1"><g
                       transform="translate(87.0449,319.7793)"
                       id="g542"
                       style="fill:#ff5a29;fill-opacity:1"><path
                         d="M 0,0 0.005,-1.898 C 0.009,-3.013 1.216,-3.707 2.181,-3.15 L 24.054,9.479 c 0.45,0.259 0.727,0.74 0.726,1.26 l -0.006,1.898 c -0.003,1.114 -1.21,1.809 -2.175,1.252 L 0.726,1.26 C 0.275,1 -0.001,0.52 0,0"
                         style="fill:#ff5a29;fill-opacity:1;fill-rule:nonzero;stroke:none"
                         id="path540"
                         inkscape:connector-curvature="0" /></g></g></g></g><g
                 transform="translate(77.4453,323.6812)"
                 id="g552"
                 style="fill:#ff5a29;fill-opacity:1"><path
                   d="m 0,0 0.005,-1.898 c 0.003,-1.115 1.211,-1.81 2.176,-1.252 l 31.446,18.155 c 0.45,0.26 0.727,0.741 0.726,1.261 l -0.006,1.898 c -0.003,1.114 -1.21,1.809 -2.176,1.252 L 0.725,1.26 C 0.275,1 -0.001,0.52 0,0"
                   style="fill:#ff5a29;fill-opacity:1;fill-rule:nonzero;stroke:none"
                   id="path550"
                   inkscape:connector-curvature="0" /></g></g></g></g></g></g><g
       id="g558"
       style="fill:#41ead4;fill-opacity:1"><g
         id="g560"
         style="fill:#41ead4;fill-opacity:1"><g
           id="g566"
           style="fill:#41ead4;fill-opacity:1"><g
             id="g568"
             style="fill:#41ead4;fill-opacity:1"><path
               d="m 219.428,288.879 c 0,-8.284 6.716,-15 15,-15 v 0 c 8.284,0 15,6.716 15,15 v 0 c 0,8.285 -6.716,15.001 -15,15.001 v 0 c -8.284,0 -15,-6.716 -15,-15.001"
               style="fill:#41ead4;stroke:none;fill-opacity:1"
               id="path576"
               inkscape:connector-curvature="0" /></g></g></g></g><g
       id="g578"><g
         id="g580"
         clip-path="url(#clipPath584)"
         style="fill:#ff5a29;fill-opacity:1"><g
           id="g586"
           transform="translate(233.1348,281.9785)"
           style="fill:#ff5a29;fill-opacity:1"><path
             d="m 0,0 -6.261,4.579 2.278,3.115 3.249,-2.375 6.583,8.395 3.036,-2.382 z"
             style="fill:#ff5a29;fill-opacity:1;fill-rule:nonzero;stroke:none"
             id="path588"
             inkscape:connector-curvature="0" /></g><g
           id="g590"
           style="fill:#ff5a29;fill-opacity:1"><g
             id="g592"
             style="fill:#ff5a29;fill-opacity:1" /><g
             id="g604"
             style="fill:#ff5a29;fill-opacity:1"><g
               clip-path="url(#clipPath596)"
               id="g602"
               style="opacity:0.46000701;fill:#ff5a29;fill-opacity:1"><g
                 transform="translate(214.8687,355.3101)"
                 id="g600"
                 style="fill:#ff5a29;fill-opacity:1"><path
                   d="M 0,0 C 3.536,-2.042 6.398,-7 6.387,-11.063 6.375,-15.15 3.495,-16.792 -0.042,-14.75 l -58.249,33.629 c -3.536,2.042 -6.398,7 -6.387,11.088 0.012,4.063 2.893,5.705 6.429,3.663 z"
                   style="fill:#ff5a29;fill-opacity:1;fill-rule:nonzero;stroke:none"
                   id="path598"
                   inkscape:connector-curvature="0" /></g></g></g></g><g
           id="g606"
           style="fill:#ff5a29;fill-opacity:1"><g
             id="g608"
             style="fill:#ff5a29;fill-opacity:1" /><g
             id="g620"
             style="fill:#ff5a29;fill-opacity:1"><g
               clip-path="url(#clipPath612)"
               id="g618"
               style="opacity:0.46000701;fill:#ff5a29;fill-opacity:1"><g
                 transform="translate(435.6895,177.2393)"
                 id="g616"
                 style="fill:#ff5a29;fill-opacity:1"><path
                   d="m 0,0 c 2.458,-1.419 4.447,-4.865 4.439,-7.689 -0.007,-2.841 -2.01,-3.983 -4.467,-2.564 l -40.487,23.375 c -2.458,1.419 -4.448,4.865 -4.439,7.706 0.008,2.824 2.011,3.966 4.468,2.547 z"
                   style="fill:#ff5a29;fill-opacity:1;fill-rule:nonzero;stroke:none"
                   id="path614"
                   inkscape:connector-curvature="0" /></g></g></g></g></g></g><g
       id="g622"
       style="fill:url(#radialGradient2697);fill-opacity:1"><g
         id="g624"
         style="fill:url(#radialGradient2697);fill-opacity:1"><g
           id="g630"
           style="fill:url(#radialGradient2697);fill-opacity:1"><g
             id="g632"
             style="fill:url(#radialGradient2697);fill-opacity:1"><path
               d="M 120.481,237.053 70.736,208.145 c -1.488,-0.866 -1.477,-2.265 0.017,-3.129 v 0 l 30.681,-17.713 c 1.497,-0.864 3.911,-0.864 5.399,0 v 0 l 49.745,28.91 c 1.486,0.863 1.481,2.263 -0.017,3.127 v 0 l -30.68,17.714 c -0.748,0.431 -1.726,0.647 -2.703,0.647 v 0 c -0.977,0 -1.954,-0.216 -2.697,-0.648"
               style="fill:url(#radialGradient2697);stroke:none;fill-opacity:1"
               id="path642"
               inkscape:connector-curvature="0" /></g></g></g></g><g
       id="g644"><g
         id="g646"
         clip-path="url(#clipPath650)"><g
           id="g652"><g
             id="g654" /><g
             id="g682"><g
               clip-path="url(#clipPath658)"
               id="g680"
               style="opacity:0.21000701"><g
                 id="g678"><g
                   id="g676"><g
                     id="g674"><g
                       id="g672"><path
                         d="m 123.829,151.581 c -14.301,-8.256 -14.381,-21.645 -0.169,-29.904 14.208,-8.257 37.328,-8.257 51.629,0 14.305,8.259 14.375,21.648 0.168,29.904 -14.213,8.26 -37.323,8.26 -51.628,0"
                         style="fill:url(#linearGradient668);stroke:none"
                         id="path670"
                         inkscape:connector-curvature="0" /></g></g></g></g></g></g></g><g
           id="g684"
           transform="translate(141.2109,132.75)"><path
             d="m 0,0 c 0,0 -6.576,-1.716 -9.149,-1.716 -2.573,0 0,-2.573 4.289,-2.858 4.288,-0.286 8.291,-0.572 9.149,0.571 0.857,1.144 -0.191,4.384 -0.191,4.384 z"
             style="fill:#5155d4;fill-opacity:1;fill-rule:nonzero;stroke:none"
             id="path686"
             inkscape:connector-curvature="0" /></g><g
           id="g688"
           transform="translate(159.5093,138.7539)"><path
             d="m 0,0 c 0,0 -6.576,-1.715 -9.149,-1.715 -2.574,0 0,-2.573 4.288,-2.859 4.289,-0.286 8.292,-0.572 9.15,0.571 0.857,1.145 -0.191,4.385 -0.191,4.385 z"
             style="fill:#5155d4;fill-opacity:1;fill-rule:nonzero;stroke:none"
             id="path690"
             inkscape:connector-curvature="0" /></g><g
           id="g692"
           transform="translate(160.9385,209.7549)"><path
             d="m 0,0 c 0,0 2.383,-65.378 2.764,-72.239 0,0 -1.906,-1.526 -4.193,-0.763 0,0 -7.72,42.886 -8.863,53.941 -1.145,11.055 -3.05,14.868 -3.05,14.868 z"
             style="fill:#343996;fill-opacity:1;fill-rule:nonzero;stroke:none"
             id="path694"
             inkscape:connector-curvature="0" /></g><g
           id="g696"
           transform="translate(136.541,205.9424)"><path
             d="m 0,0 c 0,0 -2.287,-37.739 4.575,-74.336 0,0 2.287,-1.143 4.193,1.524 0,0 4.193,64.044 5.337,73.194 C 15.249,9.53 3.05,1.906 0,0"
             style="fill:#343996;fill-opacity:1;fill-rule:nonzero;stroke:none"
             id="path698"
             inkscape:connector-curvature="0" /></g><g
           id="g700"
           transform="translate(146.834,176.9707)"><path
             d="m 0,0 c 0,0 3.812,10.674 7.243,16.392 3.431,5.718 2.668,14.105 2.668,14.105 L -3.05,29.354 Z"
             style="fill:#343996;fill-opacity:1;fill-rule:nonzero;stroke:none"
             id="path702"
             inkscape:connector-curvature="0" /></g><g
           id="g704"
           transform="translate(133.6343,243.251)"><path
             d="m 0,0 -11.328,5.492 c 0,0 -3.433,3.433 -4.291,4.12 -0.859,0.686 -6.523,2.059 -7.552,1.888 -1.03,-0.172 -2.918,-1.717 -2.403,-2.06 0.514,-0.343 5.321,-2.918 5.492,-3.948 0.172,-1.029 -1.716,-2.403 -1.029,-3.09 0.686,-0.686 2.231,0.687 3.26,0.687 1.03,0 3.948,-1.373 3.948,-1.373 l 10.985,-6.351 z"
             style="fill:#ff9d6f;fill-opacity:1;fill-rule:nonzero;stroke:none"
             id="path706"
             inkscape:connector-curvature="0" /></g><g
           id="g708"
           transform="translate(157.7939,254.2617)"><path
             d="m 0,0 c 0,0 -2.097,2.287 -5.528,-2.097 -3.43,-4.383 -6.29,-10.865 -11.055,-10.293 -4.765,0.573 -12.58,4.384 -12.58,4.384 0,0 -3.431,-2.287 -2.859,-5.718 0,0 11.055,-8.196 18.489,-7.815 7.433,0.382 15.439,8.006 17.154,13.343 C 5.337,-2.859 0,0 0,0"
             style="fill:#ff3d9d;fill-opacity:1;fill-rule:nonzero;stroke:none"
             id="path710"
             inkscape:connector-curvature="0" /></g><g
           id="g712"
           transform="translate(134.8696,206.0244)"><path
             d="m 0,0 c 0.684,-3.418 10.424,-5.127 16.121,-4.216 5.695,0.912 11.83,3.706 11.627,10.311 0,0 0.865,26.387 0.865,31.578 0,5.191 -3.265,9.034 -3.265,9.034 0,0 -3.19,3.646 -13.215,1.595 0,0 -8.168,-1.779 -11.927,-7.817 0,0 -2.596,-6.632 -1.73,-20.476 C -0.659,6.166 0,0 0,0"
             style="fill:#ff3d9d;fill-opacity:1;fill-rule:nonzero;stroke:none"
             id="path714"
             inkscape:connector-curvature="0" /></g><g
           id="g716"
           transform="translate(154.8306,261.6504)"><path
             d="m 0,0 c 0,0 -0.865,-5.047 0,-7.354 0.145,-1.154 -4.902,-5.047 -9.373,-4.038 -2.595,0.577 -2.451,1.875 -2.451,1.875 0,0 2.163,3.605 1.874,7.065 C -10.238,1.009 -3.028,0.721 0,0"
             style="fill:#ff7c40;fill-opacity:1;fill-rule:nonzero;stroke:none"
             id="path718"
             inkscape:connector-curvature="0" /></g><g
           id="g720"
           transform="translate(137.96,271.8159)"><path
             d="m 0,0 c 0,-6.57 5.326,-11.896 11.896,-11.896 6.57,0 11.896,5.326 11.896,11.896 0,6.57 -5.326,11.896 -11.896,11.896 C 5.326,11.896 0,6.57 0,0"
             style="fill:#ff9d6f;fill-opacity:1;fill-rule:nonzero;stroke:none"
             id="path722"
             inkscape:connector-curvature="0" /></g><g
           id="g724"
           transform="translate(137.96,271.0229)"><path
             d="m 0,0 c 0,0 -0.145,-11.917 2.451,-14.322 2.595,-2.405 6.58,2.252 12.951,3.745 C 21.773,-8.94 10.238,3.45 10.238,3.45 Z"
             style="fill:#ff9d6f;fill-opacity:1;fill-rule:nonzero;stroke:none"
             id="path726"
             inkscape:connector-curvature="0" /></g><g
           id="g728"
           transform="translate(123.2388,232.0322)"><path
             d="m 0,0 c 0,0 -16.656,7.418 -18.896,8.678 -2.239,1.26 -3.919,5.879 -4.759,6.858 -0.84,0.98 -4.619,3.219 -4.479,2.24 0.14,-0.98 2.1,-2.799 2.1,-2.799 0,0 -1.4,-2.38 -1.68,-3.92 -0.28,-1.539 1.819,-4.619 2.94,-5.458 1.119,-0.84 3.778,-1.12 3.778,-1.12 0,0 13.578,-9.098 15.817,-9.239 C -2.939,-4.899 0.28,-3.64 0,0"
             style="fill:#ff9d6f;fill-opacity:1;fill-rule:nonzero;stroke:none"
             id="path730"
             inkscape:connector-curvature="0" /></g><g
           id="g732"
           transform="translate(138.0659,247.1143)"><path
             d="m 0,0 c 0,0 -2.097,2.287 -5.528,-2.098 -3.43,-4.383 -6.29,-10.864 -11.055,-10.292 -4.765,0.572 -12.58,4.384 -12.58,4.384 0,0 -3.431,-2.287 -2.859,-5.719 0,0 11.055,-8.195 18.489,-7.814 7.434,0.381 15.439,8.006 17.155,13.343 C 5.337,-2.859 0,0 0,0"
             style="fill:#ff3d9d;fill-opacity:1;fill-rule:nonzero;stroke:none"
             id="path734"
             inkscape:connector-curvature="0" /></g><g
           id="g736"
           transform="translate(142.7363,281.8579)"><path
             d="m 0,0 c 0,0 -4.281,-0.931 -5.583,-7.445 0.558,-2.792 4.466,-0.558 5.955,-4.281 1.489,-3.722 2.42,-4.839 2.42,-4.839 l 0.93,0.372 c 0,0 0,2.978 1.303,2.978 1.303,0 1.675,-3.536 0.931,-5.025 -0.745,-1.489 -2.42,-2.234 -2.42,-2.234 0,0 1.861,-3.164 2.792,-3.536 0.931,-0.372 4.281,0.372 5.584,0.931 1.302,0.558 3.722,3.164 5.583,6.142 1.861,2.978 3.537,8.189 2.42,11.726 -1.117,3.536 -3.723,4.466 -3.723,4.466 0,0 -1.488,2.048 -4.094,2.978 C 9.492,3.164 4.653,3.536 0,0"
             style="fill:#843837;fill-opacity:1;fill-rule:nonzero;stroke:none"
             id="path738"
             inkscape:connector-curvature="0" /></g><g
           id="g740"
           transform="translate(141.7827,273.9893)"><path
             d="m 0,0 c 0,0 2.859,-3.431 1.43,-8.292 -1.43,-4.86 0.571,-4.86 2.573,-11.15 2.001,-6.289 -3.717,-13.723 1.715,-22.872 5.432,-9.15 20.014,-8.006 26.59,1.143 6.576,9.15 -3.717,15.725 -4.003,24.017 -0.286,8.291 6.29,13.151 -1.144,18.869 C 19.728,7.434 16.583,13.724 7.434,11.15 -1.715,8.577 -4.003,4.002 0,0"
             style="fill:#843837;fill-opacity:1;fill-rule:nonzero;stroke:none"
             id="path742"
             inkscape:connector-curvature="0" /></g></g></g><g
       id="g744"
       transform="translate(501.11702,63.669576)"><g
         id="g746"
         clip-path="url(#clipPath750)"><g
           id="g752"
           transform="translate(261.4414,35.1074)"><path
             d="m 0,0 c -0.489,-0.501 -0.909,-1.054 -1.255,-1.646 l -0.526,0.274 c -0.076,0.337 -0.396,0.569 -0.746,0.528 -0.375,-0.045 -0.643,-0.384 -0.599,-0.759 0.044,-0.375 0.383,-0.642 0.758,-0.598 0.074,0.009 0.143,0.029 0.208,0.058 l 0.512,-0.264 c -0.286,-0.628 -0.491,-1.29 -0.612,-1.975 l 0.846,-0.149 c 0.261,1.478 0.962,2.839 2.029,3.932 z"
             style="fill:#392836;fill-opacity:1;fill-rule:nonzero;stroke:none"
             id="path754"
             inkscape:connector-curvature="0" /></g><g
           id="g756"
           transform="translate(267.6562,37.7148)"><path
             d="M 0,0 C -0.193,0 -0.386,-0.007 -0.577,-0.02 L -0.66,0.689 C -0.448,0.858 -0.325,1.13 -0.359,1.42 -0.412,1.864 -0.815,2.183 -1.26,2.131 -1.705,2.078 -2.023,1.675 -1.972,1.23 -1.937,0.942 -1.757,0.708 -1.514,0.592 l 0.084,-0.707 c -0.808,-0.132 -1.589,-0.376 -2.333,-0.732 l 0.371,-0.774 c 1.058,0.506 2.199,0.763 3.392,0.763 0.562,0 1.124,-0.061 1.67,-0.179 l 0.183,0.839 C 1.246,-0.066 0.623,0 0,0"
             style="fill:#392836;fill-opacity:1;fill-rule:nonzero;stroke:none"
             id="path758"
             inkscape:connector-curvature="0" /></g><g
           id="g760"
           transform="translate(275.1328,34.8301)"><path
             d="M 0,0 C 0.375,0.046 0.641,0.387 0.595,0.762 0.549,1.136 0.208,1.402 -0.166,1.356 -0.517,1.313 -0.772,1.013 -0.767,0.667 l -0.47,-0.411 c -0.474,0.487 -1.008,0.921 -1.594,1.29 L -3.289,0.82 c 1.284,-0.809 2.288,-1.955 2.903,-3.312 l 0.782,0.353 c -0.285,0.628 -0.643,1.214 -1.067,1.75 l 0.455,0.398 C -0.146,-0.006 -0.074,-0.009 0,0"
             style="fill:#392836;fill-opacity:1;fill-rule:nonzero;stroke:none"
             id="path762"
             inkscape:connector-curvature="0" /></g><g
           id="g764"
           transform="translate(267.0361,26.1543)"><path
             d="m 0,0 c -0.437,-0.026 -0.878,-0.039 -1.311,-0.039 -0.996,0 -1.961,0.069 -2.806,0.203 -0.442,0.07 -0.958,0.176 -1.439,0.331 1.186,-2.107 3.477,-3.539 6.103,-3.539 3.233,0 5.959,2.17 6.737,5.1 C 6.512,1.547 5.579,1.121 4.5,0.785 3.164,0.368 1.607,0.097 0,0"
             style="fill:#392836;fill-opacity:1;fill-rule:nonzero;stroke:none"
             id="path766"
             inkscape:connector-curvature="0" /></g><g
           id="g768"
           transform="translate(270.5752,29.6494)"><path
             d="m 0,0 c -0.849,0 -1.54,0.69 -1.54,1.54 0,0.85 0.691,1.54 1.54,1.54 0.85,0 1.541,-0.69 1.541,-1.54 C 1.541,0.69 0.85,0 0,0 m -5.364,-1.029 c -1.156,0 -2.095,0.94 -2.095,2.094 0,1.156 0.939,2.095 2.095,2.095 1.155,0 2.094,-0.939 2.094,-2.095 0,-1.154 -0.939,-2.094 -2.094,-2.094 m 2.445,7.378 c -3.796,0 -6.885,-3.02 -6.885,-6.731 0,-0.482 0.053,-0.962 0.156,-1.429 0.762,-0.545 3.064,-1.007 6.055,-0.827 3.261,0.197 5.998,1.084 7.556,2.445 -0.006,0.22 -0.024,0.441 -0.052,0.658 -0.43,3.354 -3.366,5.884 -6.83,5.884"
             style="fill:#392836;fill-opacity:1;fill-rule:nonzero;stroke:none"
             id="path770"
             inkscape:connector-curvature="0" /></g><g
           id="g772"
           transform="translate(285.7783,33.8838)"><path
             d="M 0,0 C -0.334,0.131 -0.912,0.35 -1.565,0.269 -2.189,0.19 -2.521,-0.117 -2.521,-0.871 v -0.982 h 2.523 v -1.944 h -2.523 v -6.177 h -2.187 v 6.177 h -1.518 v 1.944 h 1.518 v 1.006 c 0,1.904 1.014,3.152 2.908,3.152 0.728,0 1.311,-0.138 1.8,-0.349 z"
             style="fill:#392836;fill-opacity:1;fill-rule:nonzero;stroke:none"
             id="path774"
             inkscape:connector-curvature="0" /></g><g
           id="g776"
           transform="translate(291.1035,30.1104)"><path
             d="m 0,0 c -0.2,0.034 -0.404,0.053 -0.596,0.053 -1.013,0 -1.71,-0.621 -1.71,-1.827 V -6.2 h -2.187 v 8.121 h 2.121 V 1.033 c 0.511,0.763 1.29,1.107 2.288,1.107 0.469,0 0.96,-0.145 1.239,-0.382 z"
             style="fill:#392836;fill-opacity:1;fill-rule:nonzero;stroke:none"
             id="path778"
             inkscape:connector-curvature="0" /></g><g
           id="g780"
           transform="translate(293.9941,28.7383)"><path
             d="M 0,0 H 3.596 C 3.395,1.039 2.767,1.626 1.827,1.626 0.797,1.626 0.193,1.005 0,0 m 5.792,-0.755 c 0,-0.251 -0.017,-0.553 -0.042,-0.737 h -5.758 c 0.235,-1.174 1.056,-1.685 2.087,-1.685 0.704,0 1.467,0.285 2.054,0.78 L 5.415,-3.806 C 4.493,-4.652 3.319,-5.038 1.953,-5.038 c -2.489,0 -4.216,1.693 -4.216,4.25 0,2.556 1.677,4.3 4.108,4.3 2.338,0 3.938,-1.736 3.947,-4.267"
             style="fill:#392836;fill-opacity:1;fill-rule:nonzero;stroke:none"
             id="path782"
             inkscape:connector-curvature="0" /></g><g
           id="g784"
           transform="translate(302.6611,28.7383)"><path
             d="M 0,0 H 3.596 C 3.395,1.039 2.766,1.626 1.827,1.626 0.796,1.626 0.192,1.005 0,0 m 5.792,-0.755 c 0,-0.251 -0.018,-0.553 -0.042,-0.737 h -5.759 c 0.236,-1.174 1.057,-1.685 2.087,-1.685 0.704,0 1.467,0.285 2.054,0.78 L 5.414,-3.806 C 4.492,-4.652 3.319,-5.038 1.953,-5.038 c -2.489,0 -4.216,1.693 -4.216,4.25 0,2.556 1.676,4.3 4.107,4.3 2.339,0 3.939,-1.736 3.948,-4.267"
             style="fill:#392836;fill-opacity:1;fill-rule:nonzero;stroke:none"
             id="path786"
             inkscape:connector-curvature="0" /></g><g
           id="g788"
           transform="translate(311.4746,27.9756)"><path
             d="m 0,0 c 0,-1.283 0.847,-2.238 2.087,-2.238 1.291,0 2.096,0.997 2.096,2.238 0,1.24 -0.805,2.237 -2.096,2.237 C 0.847,2.237 0,1.282 0,0 m 6.429,0 c 0,-2.439 -1.694,-4.275 -3.931,-4.275 -1.09,0 -1.861,0.427 -2.389,1.056 V -7.418 H -2.07 V 4.056 H 0.067 V 3.159 c 0.528,0.662 1.308,1.115 2.422,1.115 2.246,0 3.94,-1.836 3.94,-4.274"
             style="fill:#392836;fill-opacity:1;fill-rule:nonzero;stroke:none"
             id="path790"
             inkscape:connector-curvature="0" /></g><path
           d="m 321.124,23.91 h -2.188 v 8.121 h 2.188 z m 0.294,10.778 c 0,-0.788 -0.612,-1.391 -1.4,-1.391 -0.788,0 -1.391,0.603 -1.391,1.391 0,0.789 0.603,1.409 1.391,1.409 0.788,0 1.4,-0.62 1.4,-1.409"
           style="fill:#392836;fill-opacity:1;fill-rule:nonzero;stroke:none"
           id="path792"
           inkscape:connector-curvature="0" /><g
           id="g794"
           transform="translate(324.7744,29.1396)"><path
             d="M 0,0 3.06,2.892 H 5.741 L 1.803,-0.93 5.767,-5.229 H 3.076 L 0,-1.944 V -5.229 H -2.188 V 6.84 H 0 Z"
             style="fill:#392836;fill-opacity:1;fill-rule:nonzero;stroke:none"
             id="path796"
             inkscape:connector-curvature="0" /></g><g
           id="g798"
           transform="translate(175.7285,26.1563)"><path
             d="m 0,0 v 3.633 c -0.448,0.697 -1.41,1.294 -2.405,1.294 -1.609,0 -2.571,-1.327 -2.571,-3.102 0,-1.775 0.962,-3.085 2.571,-3.085 0.995,0 1.957,0.564 2.405,1.26 m 0,-2.173 v 1.194 c -0.597,-0.812 -1.576,-1.392 -2.704,-1.392 -2.089,0 -3.566,1.592 -3.566,4.196 0,2.555 1.46,4.213 3.566,4.213 1.079,0 2.058,-0.53 2.704,-1.41 V 8.892 H 1.245 V -2.173 Z"
             style="fill:#392836;fill-opacity:1;fill-rule:nonzero;stroke:none"
             id="path800"
             inkscape:connector-curvature="0" /></g><g
           id="g802"
           transform="translate(182.5132,31.166)"><path
             d="M 0,0 C -1.709,0 -2.555,-1.443 -2.621,-2.671 H 2.637 C 2.621,-1.477 1.824,0 0,0 m -3.932,-3.168 c 0,2.322 1.659,4.196 3.948,4.196 2.422,0 3.848,-1.89 3.848,-4.296 v -0.315 h -6.485 c 0.1,-1.51 1.161,-2.77 2.886,-2.77 0.912,0 1.841,0.365 2.471,1.012 L 3.333,-6.154 C 2.538,-6.95 1.459,-7.381 0.149,-7.381 c -2.372,0 -4.081,1.708 -4.081,4.213"
             style="fill:#392836;fill-opacity:1;fill-rule:nonzero;stroke:none"
             id="path804"
             inkscape:connector-curvature="0" /></g><g
           id="g806"
           transform="translate(187.2729,25.0449)"><path
             d="m 0,0 0.647,0.896 c 0.531,-0.614 1.542,-1.145 2.637,-1.145 1.228,0 1.891,0.581 1.891,1.377 0,1.94 -4.959,0.747 -4.959,3.716 0,1.244 1.078,2.305 2.985,2.305 1.361,0 2.323,-0.513 2.969,-1.161 L 5.59,5.126 C 5.109,5.706 4.23,6.138 3.201,6.138 2.106,6.138 1.426,5.59 1.426,4.877 1.426,3.119 6.386,4.279 6.386,1.161 6.386,-0.183 5.308,-1.26 3.234,-1.26 1.924,-1.26 0.812,-0.862 0,0"
             style="fill:#392836;fill-opacity:1;fill-rule:nonzero;stroke:none"
             id="path808"
             inkscape:connector-curvature="0" /></g><path
           d="m 195.268,31.995 h 1.244 v -8.012 h -1.244 z m -0.215,1.974 c 0,0.465 0.381,0.846 0.829,0.846 0.464,0 0.846,-0.381 0.846,-0.846 0,-0.464 -0.382,-0.829 -0.846,-0.829 -0.448,0 -0.829,0.365 -0.829,0.829"
           style="fill:#392836;fill-opacity:1;fill-rule:nonzero;stroke:none"
           id="path810"
           inkscape:connector-curvature="0" /><g
           id="g812"
           transform="translate(204.374,26.2891)"><path
             d="m 0,0 v 3.5 c -0.431,0.697 -1.393,1.294 -2.389,1.294 -1.609,0 -2.57,-1.277 -2.57,-3.052 0,-1.759 0.961,-3.053 2.57,-3.053 0.996,0 1.958,0.615 2.389,1.311 m -5.805,-4.362 0.63,0.928 c 0.663,-0.795 1.46,-1.094 2.604,-1.094 1.327,0 2.571,0.646 2.571,2.405 v 1.144 c -0.581,-0.812 -1.559,-1.426 -2.687,-1.426 -2.09,0 -3.566,1.559 -3.566,4.147 0,2.57 1.459,4.163 3.566,4.163 1.078,0 2.04,-0.53 2.687,-1.41 v 1.211 h 1.244 v -7.779 c 0,-2.655 -1.858,-3.484 -3.815,-3.484 -1.36,0 -2.289,0.266 -3.234,1.195"
             style="fill:#392836;fill-opacity:1;fill-rule:nonzero;stroke:none"
             id="path814"
             inkscape:connector-curvature="0" /></g><g
           id="g816"
           transform="translate(213.0991,23.9834)"><path
             d="M 0,0 V 5.242 C 0,6.651 -0.713,7.1 -1.792,7.1 -2.771,7.1 -3.699,6.503 -4.164,5.855 V 0 h -1.244 v 8.012 h 1.244 V 6.851 c 0.564,0.663 1.659,1.36 2.853,1.36 1.676,0 2.555,-0.846 2.555,-2.588 L 1.244,0 Z"
             style="fill:#392836;fill-opacity:1;fill-rule:nonzero;stroke:none"
             id="path818"
             inkscape:connector-curvature="0" /></g><g
           id="g820"
           transform="translate(219.8828,31.166)"><path
             d="M 0,0 C -1.708,0 -2.555,-1.443 -2.621,-2.671 H 2.637 C 2.621,-1.477 1.825,0 0,0 m -3.931,-3.168 c 0,2.322 1.659,4.196 3.948,4.196 2.421,0 3.848,-1.89 3.848,-4.296 v -0.315 h -6.486 c 0.1,-1.51 1.162,-2.77 2.887,-2.77 0.912,0 1.84,0.365 2.471,1.012 L 3.334,-6.154 C 2.538,-6.95 1.46,-7.381 0.149,-7.381 c -2.372,0 -4.08,1.708 -4.08,4.213"
             style="fill:#392836;fill-opacity:1;fill-rule:nonzero;stroke:none"
             id="path822"
             inkscape:connector-curvature="0" /></g><g
           id="g824"
           transform="translate(231.1455,26.1563)"><path
             d="m 0,0 v 3.633 c -0.448,0.697 -1.41,1.294 -2.405,1.294 -1.609,0 -2.571,-1.327 -2.571,-3.102 0,-1.775 0.962,-3.085 2.571,-3.085 0.995,0 1.957,0.564 2.405,1.26 m 0,-2.173 v 1.194 c -0.597,-0.812 -1.576,-1.392 -2.704,-1.392 -2.09,0 -3.566,1.592 -3.566,4.196 0,2.555 1.459,4.213 3.566,4.213 1.079,0 2.058,-0.53 2.704,-1.41 V 8.892 H 1.244 V -2.173 Z"
             style="fill:#392836;fill-opacity:1;fill-rule:nonzero;stroke:none"
             id="path826"
             inkscape:connector-curvature="0" /></g><g
           id="g828"
           transform="translate(241.9595,24.8965)"><path
             d="M 0,0 C 1.626,0 2.588,1.31 2.588,3.085 2.588,4.859 1.626,6.187 0,6.187 -0.979,6.187 -1.957,5.59 -2.388,4.893 V 1.26 C -1.957,0.563 -0.979,0 0,0 m -3.632,-0.913 v 11.064 h 1.244 V 5.888 c 0.647,0.88 1.609,1.41 2.704,1.41 2.09,0 3.566,-1.658 3.566,-4.213 0,-2.605 -1.476,-4.196 -3.566,-4.196 -1.128,0 -2.107,0.58 -2.704,1.392 v -1.194 z"
             style="fill:#392836;fill-opacity:1;fill-rule:nonzero;stroke:none"
             id="path830"
             inkscape:connector-curvature="0" /></g><g
           id="g832"
           transform="translate(247.2012,21.9766)"><path
             d="m 0,0 c 0.183,-0.083 0.481,-0.133 0.68,-0.133 0.548,0 0.912,0.183 1.195,0.846 l 0.53,1.211 -3.35,8.095 H 0.398 L 3.069,3.45 5.723,10.019 h 1.36 L 3.069,0.382 c -0.481,-1.161 -1.294,-1.61 -2.356,-1.626 -0.265,0 -0.68,0.05 -0.912,0.116 z"
             style="fill:#392836;fill-opacity:1;fill-rule:nonzero;stroke:none"
             id="path834"
             inkscape:connector-curvature="0" /></g></g></g></g></svg>